<?xml version="1.0" encoding="utf-8"?>
<!-- Generator: Adobe Illustrator 25.2.1, SVG Export Plug-In . SVG Version: 6.00 Build 0)  -->
<svg version="1.1" id="Layer_1" xmlns="http://www.w3.org/2000/svg" xmlns:xlink="http://www.w3.org/1999/xlink" x="0px" y="0px"
	 viewBox="0 0 1000 1000" style="enable-background:new 0 0 1000 1000;" xml:space="preserve">
<style type="text/css">
	.st0{display:none;}
	.st1{display:inline;fill:none;}
	.st2{display:inline;}
	.st3{fill:#084E9D;}
	.st4{fill:#3374BA;}
	.st5{fill:#EDEFF0;}
	.st6{fill:#D3D3D3;}
	.st7{fill:#1C313A;}
	.st8{fill:#29434E;}
	.st9{fill:#F9BF2C;}
</style>
<g id="Base" class="st0">
</g>
<g id="Layer_4" class="st0">
	<rect class="st1" width="1000" height="1000"/>
</g>
<g id="Body" class="st0">
	<g class="st2">
		<g>
			<circle id="Body_Back" class="st3" cx="500" cy="500" r="492.9"/>
			<circle id="Bodyfront" class="st4" cx="501.6" cy="496.1" r="399.2"/>
		</g>
		<path id="Background_Rules_1_" class="st5" d="M500.7,57.2c-244.9,0-443.5,198.6-443.5,443.5c0,150.6,75.1,283.7,189.9,363.9
			l86.1-109.1C250.5,701,195.8,607.3,195.8,500.8c0-168.4,136.5-304.9,304.9-304.9s304.9,136.5,304.9,304.9
			c0,107.1-55.2,201.2-138.7,255.6l84.3,110.4c116.6-79.9,193.1-214,193.1-366C944.2,255.8,745.6,57.2,500.7,57.2z"/>
		<g id="Rules_1_">
			<path class="st6" d="M503,176.6h-5.2c-2.8,0-5-2.3-5-5V91.3c0-2.8,2.3-5,5-5h5.2c2.8,0,5,2.3,5,5v80.2
				C508,174.3,505.8,176.6,503,176.6z"/>
			<path class="st6" d="M433.5,185l-5.1,1.1c-2.7,0.6-5.4-1.2-6-3.9l-16.7-78.5c-0.6-2.7,1.2-5.4,3.9-6l5.1-1.1
				c2.7-0.6,5.4,1.2,6,3.9l16.7,78.5C438,181.7,436.2,184.4,433.5,185z"/>
			<path class="st6" d="M365.3,209l-4.8,2.1c-2.5,1.1-5.5,0-6.7-2.6l-32.6-73.3c-1.1-2.5,0-5.5,2.6-6.7l4.8-2.1
				c2.5-1.1,5.5,0,6.7,2.6l32.6,73.3C369,204.9,367.8,207.9,365.3,209z"/>
			<path class="st6" d="M302.9,245.2l-4.2,3.1c-2.3,1.6-5.4,1.1-7-1.1l-47.2-64.9c-1.6-2.3-1.1-5.4,1.1-7l4.2-3.1
				c2.3-1.6,5.4-1.1,7,1.1l47.2,64.9C305.7,240.5,305.2,243.6,302.9,245.2z"/>
			<path class="st6" d="M251,293.7l-3.2,4.1c-1.7,2.2-4.9,2.6-7.1,0.9l-63.1-49.5c-2.2-1.7-2.6-4.9-0.9-7.1l3.2-4.1
				c1.7-2.2,4.9-2.6,7.1-0.9l63.1,49.5C252.4,288.4,252.8,291.5,251,293.7z"/>
			<path class="st6" d="M213.6,353.3l-2.3,4.7c-1.2,2.5-4.2,3.5-6.7,2.3l-72.2-35.1c-2.5-1.2-3.5-4.2-2.3-6.7l2.3-4.7
				c1.2-2.5,4.2-3.5,6.7-2.3l72.2,35.1C213.8,347.8,214.9,350.8,213.6,353.3z"/>
			<path class="st6" d="M187.1,419.8l-1,5.1c-0.6,2.7-3.2,4.5-5.9,3.9l-78.6-15.9c-2.7-0.6-4.5-3.2-3.9-5.9l1-5.1
				c0.6-2.7,3.2-4.5,5.9-3.9l78.6,15.9C185.9,414.4,187.6,417.1,187.1,419.8z"/>
			<path class="st6" d="M567.2,185l5.1,1.1c2.7,0.6,5.4-1.2,6-3.9l16.7-78.5c0.6-2.7-1.2-5.4-3.9-6l-5.1-1.1c-2.7-0.6-5.4,1.2-6,3.9
				L563.4,179C562.8,181.7,564.5,184.4,567.2,185z"/>
			<path class="st6" d="M635.4,209l4.8,2.1c2.5,1.1,5.5,0,6.7-2.6l32.6-73.3c1.1-2.5,0-5.5-2.6-6.7l-4.8-2.1c-2.5-1.1-5.5,0-6.7,2.6
				l-32.6,73.3C631.8,204.9,632.9,207.9,635.4,209z"/>
			<path class="st6" d="M697.8,245.2l4.2,3.1c2.3,1.6,5.4,1.1,7-1.1l47.2-64.9c1.6-2.3,1.1-5.4-1.1-7l-4.2-3.1
				c-2.3-1.6-5.4-1.1-7,1.1l-47.2,64.9C695.1,240.5,695.6,243.6,697.8,245.2z"/>
			<path class="st6" d="M749.7,293.7l3.2,4.1c1.7,2.2,4.9,2.6,7.1,0.9l63.1-49.5c2.2-1.7,2.6-4.9,0.9-7.1l-3.2-4.1
				c-1.7-2.2-4.9-2.6-7.1-0.9l-63.1,49.5C748.4,288.4,748,291.5,749.7,293.7z"/>
			<path class="st6" d="M787.1,353.3l2.3,4.7c1.2,2.5,4.2,3.5,6.7,2.3l72.2-35.1c2.5-1.2,3.5-4.2,2.3-6.7l-2.3-4.7
				c-1.2-2.5-4.2-3.5-6.7-2.3l-72.2,35.1C786.9,347.8,785.9,350.8,787.1,353.3z"/>
			<path class="st6" d="M813.7,419.8l1,5.1c0.6,2.7,3.2,4.5,5.9,3.9l78.6-15.9c2.7-0.6,4.5-3.2,3.9-5.9l-1-5.1
				c-0.6-2.7-3.2-4.5-5.9-3.9l-78.6,15.9C814.9,414.4,813.1,417.1,813.7,419.8z"/>
			<path class="st6" d="M749.7,696.1l3.2-4.1c1.7-2.2,4.9-2.6,7.1-0.9l63.1,49.5c2.2,1.7,2.6,4.9,0.9,7.1l-3.2,4.1
				c-1.7,2.2-4.9,2.6-7.1,0.9l-63.1-49.5C748.4,701.5,748,698.3,749.7,696.1z"/>
			<path class="st6" d="M787.1,636.5l2.3-4.7c1.2-2.5,4.2-3.5,6.7-2.3l72.2,35.1c2.5,1.2,3.5,4.2,2.3,6.7l-2.3,4.7
				c-1.2,2.5-4.2,3.5-6.7,2.3l-72.2-35.1C786.9,642,785.9,639,787.1,636.5z"/>
			<path class="st6" d="M813.7,570l1-5.1c0.6-2.7,3.2-4.5,5.9-3.9l78.6,15.9c2.7,0.6,4.5,3.2,3.9,5.9l-1,5.1
				c-0.6,2.7-3.2,4.5-5.9,3.9L817.6,576C814.9,575.4,813.1,572.8,813.7,570z"/>
			<path class="st6" d="M824.1,497.5v-5.2c0-2.8,2.3-5,5-5h80.2c2.8,0,5,2.3,5,5v5.2c0,2.8-2.3,5-5,5h-80.2
				C826.4,502.6,824.1,500.3,824.1,497.5z"/>
			<path class="st6" d="M251,696.1l-3.2-4.1c-1.7-2.2-4.9-2.6-7.1-0.9l-63.1,49.5c-2.2,1.7-2.6,4.9-0.9,7.1l3.2,4.1
				c1.7,2.2,4.9,2.6,7.1,0.9l63.1-49.5C252.4,701.5,252.8,698.3,251,696.1z"/>
			<path class="st6" d="M213.6,636.5l-2.3-4.7c-1.2-2.5-4.2-3.5-6.7-2.3l-72.2,35.1c-2.5,1.2-3.5,4.2-2.3,6.7l2.3,4.7
				c1.2,2.5,4.2,3.5,6.7,2.3l72.2-35.1C213.8,642,214.9,639,213.6,636.5z"/>
			<path class="st6" d="M187.1,570l-1-5.1c-0.6-2.7-3.2-4.5-5.9-3.9l-78.6,15.9c-2.7,0.6-4.5,3.2-3.9,5.9l1,5.1
				c0.6,2.7,3.2,4.5,5.9,3.9l78.6-15.9C185.9,575.4,187.6,572.8,187.1,570z"/>
			<path class="st6" d="M176.6,497.5v-5.2c0-2.8-2.3-5-5-5H91.4c-2.8,0-5,2.3-5,5v5.2c0,2.8,2.3,5,5,5h80.2
				C174.4,502.6,176.6,500.3,176.6,497.5z"/>
		</g>
	</g>
</g>
<g id="Knop">
	<g>
		<path class="st7" d="M844.8,469.9c-2.4-28-8.1-55.1-16.8-80.8c-1.3,0.2-2.6,0.2-3.9,0.2c-18,0-32.5-14.6-32.5-32.5
			c0-9.8,4.4-18.7,11.3-24.6c-11.1-20.1-24.2-38.9-38.9-56.3c-4.6,2.5-9.8,3.9-15.4,3.9c-18,0-32.5-14.6-32.5-32.5
			c0-5.4,1.3-10.4,3.6-14.9c-20.9-17.2-43.8-31.9-68.3-43.9c-6,7.4-15.1,12.2-25.4,12.2c-18,0-32.5-14.6-32.5-32.5
			c0-0.6,0-1.1,0-1.7c-20.5-5.7-41.8-9.6-63.7-11.5c-5.3,10.7-16.4,18.1-29.2,18.1s-23.9-7.4-29.2-18.2
			c-21.2,1.7-41.9,5.4-61.8,10.7c0,0.1,0,0.2,0,0.2c0,18-14.6,32.5-32.5,32.5c-10,0-19-4.5-24.9-11.6
			c-24.1,11.4-46.6,25.4-67.2,41.8c2.8,4.8,4.4,10.3,4.4,16.3c0,18-14.6,32.5-32.5,32.5c-6.5,0-12.5-1.9-17.6-5.2
			c-14.8,16.9-27.9,35.2-39.2,54.8c8.9,5.8,14.7,15.8,14.7,27.2c0,18-14.6,32.5-32.5,32.5c-3.1,0-6.2-0.5-9-1.3
			c-9,25.8-15.1,52.9-17.8,81c15.3,2.7,26.8,16,26.8,32c0,16.1-11.7,29.5-27.1,32.1c2.4,28,8.2,55,16.9,80.7
			c1.7-0.3,3.5-0.4,5.2-0.4c18,0,32.5,14.6,32.5,32.5c0,10.3-4.8,19.4-12.2,25.4c11.2,20,24.2,38.7,39,56c4.8-2.8,10.3-4.3,16.2-4.3
			c18,0,32.5,14.6,32.5,32.5c0,5.7-1.4,11-4,15.6c20.9,17.1,43.9,31.7,68.4,43.6c6-7.7,15.2-12.6,25.7-12.6
			c18,0,32.5,14.6,32.5,32.5c0,0.6,0,1.3-0.1,1.9c20.5,5.7,41.9,9.5,63.7,11.2c5.3-10.7,16.4-18,29.1-18c12.7,0,23.7,7.3,29.1,17.9
			c21.3-1.8,42-5.5,62-11c0.2-17.8,14.7-32.2,32.5-32.2c9.7,0,18.4,4.3,24.4,11c24.1-11.5,46.6-25.6,67.3-42.1
			c-2.5-4.6-3.8-9.8-3.8-15.4c0-18,14.6-32.5,32.5-32.5c6.1,0,11.7,1.7,16.6,4.5c14.7-16.9,27.9-35.3,39.2-54.9
			c-8.2-5.9-13.6-15.5-13.6-26.4c0-18,14.6-32.5,32.5-32.5c2.6,0,5.2,0.3,7.7,0.9c9-25.7,15.1-52.8,17.8-80.9
			c-14.5-3.3-25.4-16.2-25.4-31.7C819.1,486,830.1,473,844.8,469.9z"/>
		<path class="st8" d="M498.9,721c7.6,0,14.3,4,18.2,10c19.9-1.4,39.1-5.4,57.2-11.5c0.8-11.2,10.1-20,21.5-20
			c5.1,0,9.8,1.8,13.6,4.8c14.2-7.6,27.5-16.7,39.8-27c-0.5-1.7-0.7-3.6-0.7-5.4c0-11.9,9.7-21.6,21.6-21.6c2,0,3.9,0.3,5.7,0.8
			c12.4-14.4,23.1-30.4,31.7-47.6c-3.7-3.9-6-9.1-6-14.9c0-11.5,9-20.9,20.4-21.5c4.6-15.2,7.7-31,9-47.4c-7.1-3.5-12-10.8-12-19.3
			s4.9-15.8,12.1-19.4c-1.3-16.1-4.3-31.7-8.7-46.7c-10.8-1.2-19.1-10.3-19.1-21.4c0-5.4,2-10.4,5.3-14.2
			c-8.5-17.4-19.1-33.6-31.4-48.2c-1.7,0.4-3.5,0.7-5.3,0.7c-11.9,0-21.6-9.7-21.6-21.6c0-1.9,0.3-3.7,0.7-5.5
			c-12.1-10.4-25.3-19.6-39.4-27.3c-3.8,3.2-8.6,5.2-14,5.2c-11.7,0-21.2-9.3-21.5-20.9c-17.9-6.2-36.8-10.3-56.4-11.9
			c-3.7,6.7-10.8,11.3-19,11.3s-15.4-4.6-19-11.4c-14.9,1.2-29.5,3.8-43.5,7.6c-0.2,11.7-9.8,21.1-21.6,21.1c-6.4,0-12-2.8-16-7.1
			c-17.1,8.1-33,18.3-47.4,30.1c1.1,2.6,1.7,5.4,1.7,8.4c0,11.9-9.7,21.6-21.6,21.6c-3.2,0-6.2-0.7-8.9-1.9
			c-10.1,11.7-19,24.4-26.6,37.9c4.8,4,7.8,9.9,7.8,16.6c0,11.9-9.7,21.6-21.6,21.6c-1.1,0-2.2-0.1-3.2-0.3c-6,17.5-10,36-11.6,55.1
			c8.6,2.8,14.8,10.9,14.8,20.5c0,9.5-6.2,17.6-14.8,20.5c1.7,19.3,5.8,38,12,55.7c0.4,0,0.7-0.1,1.1-0.1c11.9,0,21.6,9.7,21.6,21.6
			c0,5.9-2.3,11.2-6.1,15c7.7,13.8,16.8,26.7,27.1,38.6c2.1-0.7,4.3-1,6.6-1c11.9,0,21.6,9.7,21.6,21.6c0,2.1-0.3,4.2-0.9,6.2
			c14.6,12.1,30.8,22.5,48.2,30.8c3.8-3.4,8.9-5.6,14.4-5.6c11.1,0,20.2,8.4,21.4,19.1c14.3,4.1,29.2,6.8,44.5,8.1
			C484.6,724.8,491.3,721,498.9,721z"/>
		<path class="st9" d="M587.3,506.6v-9c0-2.8,2.3-5,5-5h115.2c2.8,0,5,2.3,5,5v9c0,2.8-2.3,5-5,5H592.3
			C589.5,511.6,587.3,509.4,587.3,506.6z"/>
		<circle class="st9" cx="500" cy="500" r="33.5"/>
	</g>
</g>
</svg>
