<svg id="Body" xmlns="http://www.w3.org/2000/svg" viewBox="0 0 985.83 985.83"><defs><style>.cls-1{fill:#084e9d;}.cls-2{fill:#3374ba;}.cls-3{fill:#edeff0;}.cls-4{fill:#d3d3d3;}</style></defs><circle id="Body_Back" data-name="Body Back" class="cls-1" cx="492.91" cy="492.91" r="492.91"/><circle id="Bodyfront" class="cls-2" cx="494.51" cy="489.04" r="399.17"/><path id="Background_Rules" data-name="Background Rules" class="cls-3" d="M502.89,60.24c-244.95,0-443.51,198.57-443.51,443.51,0,150.64,75.11,283.71,189.92,363.87l86.13-109.1C252.67,704,198,610.27,198,503.75c0-168.37,136.49-304.86,304.86-304.86S807.75,335.38,807.75,503.75c0,107.07-55.2,201.23-138.69,255.62L753.34,869.8c116.57-79.91,193.06-214,193.06-366C946.4,258.81,747.83,60.24,502.89,60.24Z" transform="translate(-9.3 -10.08)"/><g id="Rules"><rect class="cls-4" x="485.61" y="79.2" width="15.31" height="90.31" rx="5.04"/><rect class="cls-4" x="416.09" y="99.19" width="15.31" height="90.31" rx="5.04" transform="translate(-30.05 81.18) rotate(-12)"/><rect class="cls-4" x="339.07" y="126.66" width="15.31" height="90.31" rx="5.04" transform="translate(-49.21 145.8) rotate(-24)"/><rect class="cls-4" x="268.8" y="168.1" width="15.31" height="90.31" rx="5.04" transform="translate(-81.85 193.15) rotate(-36)"/><rect class="cls-4" x="208.45" y="225.75" width="15.31" height="90.31" rx="5.04" transform="translate(-139.73 263.57) rotate(-51.87)"/><rect class="cls-4" x="166.43" y="293.78" width="15.31" height="90.31" rx="5.04" transform="translate(-216.15 337.34) rotate(-64.09)"/><rect class="cls-4" x="136.83" y="371.24" width="15.31" height="90.31" rx="5.04" transform="translate(-301.61 465.17) rotate(-78.54)"/><rect class="cls-4" x="573.73" y="99.19" width="15.31" height="90.31" rx="5.04" transform="translate(1110.76 396.33) rotate(-168)"/><rect class="cls-4" x="650.75" y="126.66" width="15.31" height="90.31" rx="5.04" transform="translate(1180.71 586.5) rotate(-156)"/><rect class="cls-4" x="721.02" y="168.1" width="15.31" height="90.31" rx="5.04" transform="translate(1183.53 804.01) rotate(-144)"/><rect class="cls-4" x="781.37" y="225.75" width="15.31" height="90.31" rx="5.04" transform="translate(1053.76 1048.78) rotate(-128.13)"/><rect class="cls-4" x="823.39" y="293.78" width="15.31" height="90.31" rx="5.04" transform="translate(880.02 1224.47) rotate(-115.91)"/><rect class="cls-4" x="852.99" y="371.24" width="15.31" height="90.31" rx="5.04" transform="translate(614.3 1332.54) rotate(-101.46)"/><rect class="cls-4" x="781.37" y="679.76" width="15.31" height="90.31" rx="5.04" transform="translate(1837.13 541.71) rotate(128.13)"/><rect class="cls-4" x="823.39" y="611.74" width="15.31" height="90.31" rx="5.04" transform="translate(1775.74 186.35) rotate(115.91)"/><rect class="cls-4" x="852.99" y="534.28" width="15.31" height="90.31" rx="5.04" transform="translate(1590.26 -158.97) rotate(101.46)"/><rect class="cls-4" x="863.8" y="452.76" width="15.31" height="90.31" rx="5.04" transform="translate(1360.06 -383.62) rotate(90)"/><rect class="cls-4" x="208.45" y="679.76" width="15.31" height="90.31" rx="5.04" transform="translate(643.64 97.28) rotate(51.87)"/><rect class="cls-4" x="166.43" y="611.74" width="15.31" height="90.31" rx="5.04" transform="translate(679.57 203.18) rotate(64.09)"/><rect class="cls-4" x="136.83" y="534.28" width="15.31" height="90.31" rx="5.04" transform="translate(674.35 312.59) rotate(78.54)"/><rect class="cls-4" x="126.02" y="452.76" width="15.31" height="90.31" rx="5.04" transform="translate(622.29 354.15) rotate(90)"/></g></svg>