<svg xmlns="http://www.w3.org/2000/svg" viewBox="0 0 1000 1000"><defs><style>.cls-1{fill:none;}.cls-2{fill:#1c313a;}.cls-3{fill:#29434e;}.cls-4{fill:#f9bf2c;}</style></defs><g id="Layer_4" data-name="Layer 4"><rect class="cls-1" width="1000" height="1000"/></g><g id="Knop"><path class="cls-2" d="M830.34,504.75a32,32,0,0,1,14.8-27,342,342,0,0,0-17.13-85,32,32,0,0,1-22.58-52,344.39,344.39,0,0,0-40.08-59.06,32,32,0,0,1-39-39.4,344.14,344.14,0,0,0-70.71-47.05,32,32,0,0,1-54-21.47,343,343,0,0,0-70.31-13.41,32,32,0,0,1-57.43-.09,342,342,0,0,0-69.26,12.87,32,32,0,0,1-52.86,20.48,344.81,344.81,0,0,0-71.59,46.66,31.7,31.7,0,0,1,1,7.91,31.92,31.92,0,0,1-40.19,30.94,344.19,344.19,0,0,0-40.52,58.46,32,32,0,0,1-23.44,52.73,342.19,342.19,0,0,0-17.7,83.72,32,32,0,0,1-.14,56.4A342.18,342.18,0,0,0,170.65,595a32,32,0,0,1,20.8,55.76,343.78,343.78,0,0,0,44.72,70.39,32,32,0,0,1,41.68,42.68,345.21,345.21,0,0,0,56.32,39.43,32,32,0,0,1,56.7,20.44,31.22,31.22,0,0,1-.4,4.77,341.83,341.83,0,0,0,81.82,17.25,32,32,0,0,1,60.79-.1,342.28,342.28,0,0,0,82.66-17.83c0-.52-.08-1-.08-1.56A32,32,0,0,1,670,803.28,345.15,345.15,0,0,0,727.37,763,32,32,0,0,1,767,722.47a344.8,344.8,0,0,0,45.73-71.54,32,32,0,0,1,20.14-53.23,342.55,342.55,0,0,0,12-66.12A32,32,0,0,1,830.34,504.75Z"/><path class="cls-3" d="M723.21,504.18a21.54,21.54,0,0,1,10-18.17,230.65,230.65,0,0,0-11.54-57.23,21.55,21.55,0,0,1-15.21-35,232.43,232.43,0,0,0-27-39.78,21.51,21.51,0,0,1-26.23-26.53,231.39,231.39,0,0,0-47.62-31.69,21.54,21.54,0,0,1-36.37-14.46,230.13,230.13,0,0,0-47.35-9,21.54,21.54,0,0,1-38.68-.07,231,231,0,0,0-46.66,8.67,21.55,21.55,0,0,1-35.6,13.8,232.23,232.23,0,0,0-48.21,31.42,21.81,21.81,0,0,1,.69,5.33,21.51,21.51,0,0,1-27.07,20.84,232,232,0,0,0-27.29,39.37,21.55,21.55,0,0,1-15.79,35.52,230.58,230.58,0,0,0-11.92,56.39,21.57,21.57,0,0,1-.09,38A230.65,230.65,0,0,0,278.89,565a21.54,21.54,0,0,1,14,37.55A231.86,231.86,0,0,0,323,649.91a21.56,21.56,0,0,1,28.07,28.75A232.91,232.91,0,0,0,389,705.22,21.58,21.58,0,0,1,427.22,719a21.3,21.3,0,0,1-.27,3.22,230.29,230.29,0,0,0,55.11,11.61,21.56,21.56,0,0,1,40.94-.06,231,231,0,0,0,55.68-12c0-.35-.06-.7-.06-1a21.57,21.57,0,0,1,36.63-15.45,231.66,231.66,0,0,0,38.61-27.13,21.55,21.55,0,0,1,20.53-28.2,21.71,21.71,0,0,1,6.17.9,231.8,231.8,0,0,0,30.8-48.18,21.54,21.54,0,0,1,13.57-35.85A230.3,230.3,0,0,0,733,522.24,21.54,21.54,0,0,1,723.21,504.18Z"/><rect class="cls-4" x="494.22" y="291.85" width="19.11" height="125.29" rx="5.04"/><circle class="cls-4" cx="503.78" cy="499.83" r="33.49"/></g></svg>